<svg width="48" height="48" viewBox="0 0 48 48" fill="none" xmlns="http://www.w3.org/2000/svg">
<path d="M35.1205 41.9598C34.8423 41.9606 34.5666 41.9061 34.3096 41.7997C34.0525 41.6933 33.819 41.537 33.6226 41.3399L24.0007 31.718L14.3788 41.3395C14.1826 41.5368 13.9491 41.6932 13.692 41.7997C13.4349 41.9062 13.1592 41.9606 12.8809 41.9598C12.6027 41.9606 12.327 41.9062 12.0699 41.7998C11.8128 41.6934 11.5794 41.5371 11.383 41.3399L6.66132 36.6178C6.46396 36.4215 6.30751 36.188 6.20102 35.9308C6.09453 35.6736 6.04012 35.3978 6.04094 35.1195C6.04094 34.5536 6.26105 34.0214 6.66174 33.6211L16.2832 24.0001L6.66132 14.3786C6.26105 13.9787 6.04053 13.4466 6.04053 12.8799C6.04053 12.3131 6.26105 11.781 6.66132 11.3807L11.3826 6.66067C11.579 6.46339 11.8125 6.30698 12.0697 6.2005C12.3268 6.09401 12.6026 6.03956 12.8809 6.04029C13.1592 6.03952 13.4348 6.09391 13.6919 6.20032C13.949 6.30674 14.1825 6.46306 14.3788 6.66025L24.0007 16.2822L33.6226 6.66067C33.819 6.46339 34.0525 6.30698 34.3097 6.2005C34.5669 6.09401 34.8426 6.03956 35.1209 6.04029C35.3992 6.03952 35.6748 6.09391 35.932 6.20032C36.1891 6.30674 36.4225 6.46306 36.6188 6.66025L41.3405 11.3815C41.7408 11.7814 41.9609 12.3136 41.9609 12.8803C41.9609 13.447 41.7408 13.9791 41.3405 14.379L31.7186 24.0001L41.3405 33.6216C41.7372 34.0192 41.96 34.558 41.96 35.1197C41.96 35.6814 41.7372 36.2201 41.3405 36.6178L36.6188 41.3395C36.4225 41.5368 36.189 41.6932 35.9318 41.7997C35.6746 41.9062 35.3989 41.9606 35.1205 41.9598Z" fill="white"/>
<path d="M35.1207 7.08042C35.397 7.08042 35.6728 7.18569 35.8834 7.39623L40.6051 12.1167C40.8073 12.3191 40.9209 12.5936 40.9209 12.8798C40.9209 13.166 40.8073 13.4404 40.6051 13.6429L30.2475 24L40.6051 34.3571C40.8073 34.5594 40.9209 34.8338 40.9209 35.1198C40.9209 35.4058 40.8073 35.6802 40.6051 35.8825L35.8834 40.6038C35.7833 40.7041 35.6645 40.7836 35.5336 40.8378C35.4027 40.892 35.2624 40.9198 35.1207 40.9196C34.979 40.9198 34.8387 40.8919 34.7079 40.8378C34.577 40.7836 34.4581 40.704 34.358 40.6038L24.0009 30.2471L13.6434 40.6038C13.5433 40.7041 13.4244 40.7836 13.2936 40.8378C13.1627 40.892 13.0224 40.9198 12.8807 40.9196C12.739 40.9198 12.5987 40.892 12.4678 40.8378C12.3369 40.7836 12.218 40.7041 12.118 40.6038L7.39714 35.8825C7.29692 35.7824 7.21741 35.6635 7.16317 35.5326C7.10893 35.4017 7.08101 35.2615 7.08101 35.1198C7.08101 34.9781 7.10893 34.8379 7.16317 34.707C7.21741 34.5761 7.29692 34.4572 7.39714 34.3571L17.7543 24L7.39714 13.6429C7.29689 13.5427 7.21737 13.4237 7.16312 13.2928C7.10886 13.1619 7.08094 13.0215 7.08094 12.8798C7.08094 12.7381 7.10886 12.5977 7.16312 12.4668C7.21737 12.3358 7.29689 12.2169 7.39714 12.1167L12.1184 7.39581C12.2185 7.29558 12.3374 7.21609 12.4683 7.1619C12.5992 7.1077 12.7394 7.07987 12.8811 7.08001C13.157 7.08001 13.4332 7.18528 13.6438 7.39581L24.0009 17.7529L34.358 7.39581C34.4582 7.29567 34.5771 7.21627 34.7079 7.16215C34.8388 7.10803 34.9791 7.08026 35.1207 7.08042ZM35.1207 5.00001C34.706 4.99895 34.2951 5.08007 33.9119 5.23868C33.5287 5.3973 33.1807 5.63027 32.888 5.92413L24.0009 14.8108L15.1146 5.92538C14.822 5.63108 14.474 5.39775 14.0906 5.23891C13.7072 5.08006 13.2961 4.99886 12.8811 5.00001C12.4663 4.99899 12.0554 5.08012 11.6721 5.23873C11.2888 5.39734 10.9408 5.63029 10.648 5.92413L5.92628 10.6454C5.32962 11.2417 5.0005 12.0351 5.0005 12.8798C5.0005 13.7244 5.32962 14.5183 5.9267 15.1146L14.8121 24L5.92587 32.8854C5.63165 33.1782 5.39837 33.5263 5.23954 33.9098C5.0807 34.2932 4.99946 34.7043 5.0005 35.1194C4.99935 35.5346 5.08063 35.9459 5.23962 36.3294C5.39861 36.713 5.63215 37.0611 5.9267 37.3538L10.6472 42.0746C10.9399 42.3688 11.2881 42.6021 11.6715 42.7609C12.0549 42.9198 12.4661 43.001 12.8811 43C13.296 43.0012 13.707 42.92 14.0903 42.7613C14.4737 42.6025 14.8217 42.3693 15.1142 42.075L24.0009 33.1892L32.8868 42.0746C33.1795 42.3688 33.5277 42.6021 33.9111 42.7609C34.2945 42.9198 34.7057 43.001 35.1207 43C35.5356 43.0011 35.9465 42.92 36.3298 42.7613C36.7131 42.6026 37.0612 42.3695 37.3538 42.0755L42.0764 37.3529C43.3071 36.1221 43.3075 34.1183 42.0768 32.8863L33.1897 24L42.0759 15.1146C43.3075 13.8825 43.3075 11.8779 42.0759 10.6463L37.3542 5.92496C37.0616 5.63081 36.7135 5.39761 36.3301 5.23884C35.9467 5.08008 35.5357 4.9989 35.1207 5.00001Z" fill="#223948"/>
</svg>
